<svg xmlns="http://www.w3.org/2000/svg" width="1416" height="879" viewBox="0 0 1416 879" role="img" aria-label="Personal portfolio hero screenshot mockup">
  <defs>
    <linearGradient id="orange" x1="0" y1="0" x2="1" y2="1">
      <stop offset="0" stop-color="#ffb000"/>
      <stop offset="1" stop-color="#ff4f00"/>
    </linearGradient>
  </defs>
  <rect width="1416" height="879" fill="#050505"/>
  <g fill="#ff5a00" opacity=".95">
    <rect x="58" y="194" width="12" height="6" rx="1"/><rect x="146" y="47" width="8" height="7" rx="1"/>
    <rect x="504" y="104" width="10" height="10"/><rect x="648" y="155" width="10" height="9"/>
    <rect x="758" y="266" width="10" height="10"/><rect x="1006" y="439" width="13" height="13"/>
    <rect x="1076" y="448" width="7" height="7"/><rect x="1189" y="565" width="13" height="8"/>
    <rect x="1315" y="122" width="9" height="8"/><rect x="1366" y="697" width="7" height="8"/>
    <rect x="111" y="398" width="15" height="10"/><rect x="284" y="462" width="8" height="8"/>
    <rect x="370" y="815" width="53" height="43"/><rect x="574" y="811" width="9" height="8"/>
    <rect x="882" y="752" width="12" height="11"/><rect x="1366" y="748" width="13" height="13"/>
  </g>
  <g fill="#833200" font-family="Consolas, monospace" font-size="14" opacity=".75">
    <text x="336" y="116">&lt;/&gt;</text><text x="303" y="391">&lt;/&gt;</text><text x="479" y="249">&lt;/&gt;</text>
    <text x="626" y="249">&lt;/&gt;</text><text x="718" y="269">&lt;/&gt;</text><text x="539" y="729">&lt;/&gt;</text>
    <text x="482" y="854">&lt;/&gt;</text><text x="1081" y="165">&lt;/&gt;</text><text x="1248" y="71">&lt;/&gt;</text>
  </g>
  <rect x="463" y="40" width="475" height="51" fill="#0b0b0b" opacity=".75"/>
  <rect x="510" y="49" width="33" height="34" fill="#111" stroke="#2d2d2d"/>
  <text x="517" y="72" fill="#6a6a6a" font-family="Arial" font-size="14">Esc</text>
  <text x="549" y="72" fill="#3d3d3d" font-family="Arial" font-size="18">للخروج من وضع ملء الشاشة، اضغط مع الاستمرار على</text>
  <g font-family="Arial Black, Arial" text-anchor="middle">
    <text x="708" y="379" fill="url(#orange)" font-size="94" font-weight="900">Mohammed Almomani</text>
    <text x="708" y="431" fill="#e1bf35" font-family="Consolas, monospace" font-size="28" font-weight="700">UI Enginee</text>
  </g>
  <g font-family="Arial" font-weight="700" text-anchor="middle">
    <rect x="532" y="548" width="162" height="54" rx="27" fill="url(#orange)"/>
    <text x="613" y="580" fill="#fff" font-size="16">View Projects</text>
    <rect x="714" y="548" width="151" height="54" rx="27" fill="none" stroke="#d59300"/>
    <text x="790" y="580" fill="#ffc400" font-size="16">Contact Me</text>
  </g>
  <rect x="499" y="104" width="9" height="8" fill="#ff5a00"/><rect x="506" y="109" width="10" height="10" fill="#ff5a00" opacity=".7"/>
  <rect x="371" y="825" width="41" height="41" fill="#ff4f00"/><path d="M412 825l11-10v43l-11 10z" fill="#8d3500"/>
  <text x="480" y="863" fill="#9a4b00" font-family="Consolas, monospace" font-size="47">&lt;/&gt;</text>
  <rect x="699" y="816" width="22" height="39" rx="11" fill="none" stroke="#e89b00" stroke-width="3"/>
</svg>
