<svg xmlns="http://www.w3.org/2000/svg" width="1424" height="899" viewBox="0 0 1424 899" role="img" aria-label="Personal portfolio skills and projects screenshot mockup">
  <defs><linearGradient id="orange" x1="0" y1="0" x2="1" y2="1"><stop offset="0" stop-color="#ffc400"/><stop offset="1" stop-color="#ff5a00"/></linearGradient></defs>
  <rect width="1424" height="899" fill="#050505"/>
  <rect y="0" width="1424" height="6" fill="#ff9d00"/>
  <rect x="513" y="11" width="383" height="43" rx="22" fill="#080808" stroke="#d29200"/>
  <g font-family="Arial" font-size="12" fill="#fff" font-weight="700" text-anchor="middle">
    <text x="555" y="36">من أنا</text><rect x="586" y="18" width="68" height="28" rx="14" fill="#3a2600" stroke="#d29200"/><text x="620" y="36">أعمل في</text>
    <text x="703" y="36">مشاريعي</text><text x="781" y="36">مسيرتي</text><text x="851" y="36">تواصل معي</text>
  </g>
  <text x="712" y="109" fill="url(#orange)" font-family="Arial Black, Arial" font-size="38" text-anchor="middle">Technical Skills</text>
  <g font-family="Arial" transform="translate(219 158)">
    <g><rect width="227" height="188" rx="10" fill="#0e0b07" stroke="#8f6100"/><text x="16" y="34" fill="#ffc400" font-size="16" font-weight="900">Frontend</text><text x="16" y="64" fill="#fff" font-size="12">React &amp; Next.js</text><rect x="16" y="69" width="178" height="4" rx="2" fill="#2a2a24"/><rect x="16" y="69" width="178" height="4" rx="2" fill="url(#orange)"/><text x="16" y="94" fill="#fff" font-size="12">TypeScript</text><rect x="16" y="99" width="178" height="4" rx="2" fill="#2a2a24"/><rect x="16" y="99" width="178" height="4" rx="2" fill="url(#orange)"/><text x="16" y="124" fill="#fff" font-size="12">Tailwind CSS</text><rect x="16" y="129" width="178" height="4" rx="2" fill="url(#orange)"/><text x="16" y="154" fill="#fff" font-size="12">Framer Motion</text><rect x="16" y="159" width="178" height="4" rx="2" fill="url(#orange)"/></g>
    <g transform="translate(248)"><rect width="227" height="188" rx="10" fill="#0e0b07" stroke="#8f6100"/><text x="16" y="34" fill="#ffc400" font-size="16" font-weight="900">Backend</text><text x="16" y="64" fill="#fff" font-size="12">Node.js</text><rect x="16" y="69" width="178" height="4" rx="2" fill="url(#orange)"/><text x="16" y="94" fill="#fff" font-size="12">Python</text><rect x="16" y="99" width="178" height="4" rx="2" fill="url(#orange)"/><text x="16" y="124" fill="#fff" font-size="12">GraphQL</text><rect x="16" y="129" width="178" height="4" rx="2" fill="url(#orange)"/><text x="16" y="154" fill="#fff" font-size="12">PostgreSQL</text><rect x="16" y="159" width="178" height="4" rx="2" fill="url(#orange)"/></g>
    <g transform="translate(496)"><rect width="227" height="188" rx="10" fill="#0e0b07" stroke="#8f6100"/><text x="16" y="34" fill="#ffc400" font-size="16" font-weight="900">DevOps &amp; Tools</text><text x="16" y="64" fill="#fff" font-size="12">Docker</text><rect x="16" y="69" width="178" height="4" rx="2" fill="url(#orange)"/><text x="16" y="94" fill="#fff" font-size="12">Git/GitHub</text><rect x="16" y="99" width="178" height="4" rx="2" fill="url(#orange)"/><text x="16" y="124" fill="#fff" font-size="12">AWS</text><rect x="16" y="129" width="178" height="4" rx="2" fill="url(#orange)"/><text x="16" y="154" fill="#fff" font-size="12">Vercel</text><rect x="16" y="159" width="178" height="4" rx="2" fill="url(#orange)"/></g>
    <g transform="translate(744)"><rect width="227" height="188" rx="10" fill="#0e0b07" stroke="#8f6100"/><text x="16" y="34" fill="#ffc400" font-size="16" font-weight="900">AI &amp; ML</text><text x="16" y="64" fill="#fff" font-size="12">TensorFlow</text><rect x="16" y="69" width="178" height="4" rx="2" fill="url(#orange)"/><text x="16" y="94" fill="#fff" font-size="12">OpenAI API</text><rect x="16" y="99" width="178" height="4" rx="2" fill="url(#orange)"/><text x="16" y="124" fill="#fff" font-size="12">LangChain</text><rect x="16" y="129" width="178" height="4" rx="2" fill="url(#orange)"/><text x="16" y="154" fill="#fff" font-size="12">HuggingFace</text><rect x="16" y="159" width="178" height="4" rx="2" fill="url(#orange)"/></g>
  </g>
  <rect y="423" width="1424" height="476" fill="#070707"/>
  <text x="712" y="535" fill="#fff" font-family="Arial Black, Arial" font-size="36" text-anchor="middle">Featured <tspan fill="#ff9d00">Projects</tspan></text>
  <g font-family="Arial" transform="translate(219 584)">
    <g><rect width="307" height="289" rx="10" fill="#0f0c08" stroke="#7d5400"/><rect width="307" height="142" rx="10" fill="#52220d"/><text x="153" y="668" fill="#fff"/><text x="153" y="86" text-anchor="middle" font-size="38">📊</text><text x="17" y="175" fill="#fff" font-size="16" font-weight="900">Nebula Analytics</text><text x="17" y="196" fill="#bfc0c1" font-size="12">AI-powered business intelligence dashboard with</text><text x="17" y="215" fill="#bfc0c1" font-size="12">predictive insights and real-time anomaly detection.</text><text x="17" y="268" fill="#ffc400" font-size="12" font-weight="700">Explore →</text></g>
    <g transform="translate(332)"><rect width="307" height="289" rx="10" fill="#0f0c08" stroke="#7d5400"/><rect width="307" height="142" rx="10" fill="#52220d"/><text x="153" y="92" text-anchor="middle" font-size="38">✨</text><text x="17" y="175" fill="#fff" font-size="16" font-weight="900">Generative UI Studio</text><text x="17" y="196" fill="#bfc0c1" font-size="12">Design-to-code platform leveraging GPT-4 and Stable</text><text x="17" y="215" fill="#bfc0c1" font-size="12">Diffusion for instant component generation.</text><text x="17" y="268" fill="#ffc400" font-size="12" font-weight="700">Explore →</text></g>
    <g transform="translate(665)"><rect width="307" height="289" rx="10" fill="#0f0c08" stroke="#7d5400"/><rect width="307" height="142" rx="10" fill="#52220d"/><text x="153" y="92" text-anchor="middle" font-size="38">🛒</text><text x="17" y="175" fill="#fff" font-size="16" font-weight="900">Quantum Commerce</text><text x="17" y="196" fill="#bfc0c1" font-size="12">High-performance PWA e-commerce with edge</text><text x="17" y="215" fill="#bfc0c1" font-size="12">caching, Stripe integration, and AI recommendations.</text><text x="17" y="268" fill="#ffc400" font-size="12" font-weight="700">Explore →</text></g>
  </g>
</svg>
